<svg width="260" height="259" xmlns="http://www.w3.org/2000/svg" xmlns:xlink="http://www.w3.org/1999/xlink" xml:space="preserve" overflow="hidden"><defs><clipPath id="clip0"><rect x="741" y="666" width="260" height="259"/></clipPath><linearGradient x1="871" y1="666" x2="871" y2="925" gradientUnits="userSpaceOnUse" spreadMethod="reflect" id="fill1"><stop offset="0" stop-color="#34D399"/><stop offset="0.5" stop-color="#32BF8C"/><stop offset="1" stop-color="#30AC7F"/></linearGradient></defs><g clip-path="url(#clip0)" transform="translate(-741 -666)"><path d="M741 710.253C741 685.812 760.813 666 785.253 666L956.747 666C981.187 666 1001 685.812 1001 710.253L1001 880.747C1001 905.187 981.187 925 956.747 925L785.253 925C760.813 925 741 905.187 741 880.747Z" fill="url(#fill1)" fill-rule="evenodd"/><path d="M777 792.112C777 781.051 777 775.521 779.743 772.761 781.104 771.393 782.853 770.466 784.759 770.105 788.602 769.377 793.252 772.446 802.554 778.58L828.157 795.468C835.84 800.536 839.68 803.07 840.641 806.431 841.12 808.111 841.12 809.889 840.641 811.569 839.68 814.93 835.84 817.464 828.157 822.532L802.554 839.42C793.252 845.555 788.602 848.623 784.759 847.895 782.853 847.534 781.104 846.607 779.743 845.238 777 842.479 777 836.949 777 825.888L777 792.112Z" fill="#FFFFFF" fill-rule="evenodd"/><path d="M777 735.5C777 730.806 780.805 727 785.5 727L902.5 727C907.194 727 911 730.806 911 735.5L911 735.5C911 740.194 907.194 744 902.5 744L785.5 744C780.805 744 777 740.194 777 735.5Z" fill="#FFFFFF" fill-rule="evenodd" fill-opacity="0.501961"/><path d="M855 775.5C855 770.806 858.806 767 863.5 767L954.5 767C959.194 767 963 770.806 963 775.5L963 775.5C963 780.195 959.194 784 954.5 784L863.5 784C858.806 784 855 780.194 855 775.5Z" fill="#FFFFFF" fill-rule="evenodd" fill-opacity="0.501961"/><path d="M866 815.5C866 810.806 869.805 807 874.5 807L926.5 807C931.194 807 935 810.806 935 815.5L935 815.5C935 820.194 931.194 824 926.5 824L874.5 824C869.805 824 866 820.194 866 815.5Z" fill="#FFFFFF" fill-rule="evenodd" fill-opacity="0.501961"/><path d="M831 855.5C831 850.806 834.805 847 839.5 847L945.5 847C950.194 847 954 850.806 954 855.5L954 855.5C954 860.194 950.194 864 945.5 864L839.5 864C834.805 864 831 860.194 831 855.5Z" fill="#FFFFFF" fill-rule="evenodd" fill-opacity="0.501961"/><path d="M957 815.5C957 810.806 960.806 807 965.5 807L966.5 807C971.194 807 975 810.806 975 815.5L975 815.5C975 820.194 971.194 824 966.5 824L965.5 824C960.806 824 957 820.194 957 815.5Z" fill="#FFFFFF" fill-rule="evenodd"/></g></svg>